# Blender v2.91.0 OBJ File: 'untitled.blend'
# www.blender.org
mtllib Braço direito.mtl
o AnyConv.com__Velociraptor
v -0.173302 1.171028 0.708545
v -0.168930 1.139842 0.741969
v -0.185601 1.258923 0.736485
v -0.185601 1.291566 0.764183
v -0.185601 1.219929 0.718732
v -0.184406 1.224093 0.873493
v -0.178763 1.183633 0.864281
v -0.185382 1.269166 0.860054
v -0.184406 1.290842 0.836129
v -0.184406 1.297297 0.798936
v -0.165547 1.135660 0.794947
v -0.168162 1.151206 0.825411
v -0.205574 1.231005 0.749589
v -0.213853 1.218228 0.838443
v -0.199437 1.197358 0.854460
v -0.219405 1.232034 0.794489
v -0.195890 1.172199 0.711565
v -0.235309 1.147756 0.805553
v -0.215490 1.134460 0.835006
v -0.234465 1.157624 0.767678
v -0.217712 1.169418 0.736374
v -0.189641 1.071211 0.706618
v -0.194364 0.962914 0.681893
v -0.219016 0.962914 0.670281
v -0.217204 1.080886 0.696336
v -0.242868 1.078076 0.707484
v -0.219081 0.925980 0.667637
v -0.242537 0.929230 0.677643
v -0.242153 0.962914 0.680613
v -0.194089 0.929632 0.678882
v -0.171992 1.068402 0.745863
v -0.177160 0.938958 0.707609
v -0.177625 0.962914 0.711649
v -0.177184 0.911661 0.721527
v -0.194125 0.895578 0.691782
v -0.219070 0.889299 0.680172
v -0.242483 0.894884 0.690502
v -0.251709 0.936699 0.700650
v -0.251231 0.962914 0.704428
v -0.196950 0.824989 0.764243
v -0.174955 0.855328 0.786685
v -0.218425 0.816805 0.756366
v -0.238579 0.824088 0.763374
v -0.251672 0.907757 0.714309
v -0.250812 0.962914 0.732260
v -0.201149 0.732615 0.906689
v -0.190071 0.748550 0.922025
v -0.217464 0.726395 0.900706
v -0.232776 0.731928 0.906031
v -0.238507 0.753699 0.924369
v -0.251827 0.852888 0.800511
v -0.251247 0.922801 0.742132
v -0.241131 0.935426 0.765482
v -0.240817 0.962914 0.755616
v -0.212924 0.941467 0.776655
v -0.212941 0.962914 0.766794
v -0.184827 0.931300 0.757849
v -0.185177 0.962914 0.747984
v -0.213152 0.899660 0.834767
v -0.188946 0.880939 0.811332
v -0.195068 0.768009 0.940749
v -0.237397 0.891793 0.827198
v -0.231892 0.772095 0.944684
v -0.213445 0.778083 0.950445
v -0.253423 1.061779 0.772138
v -0.253491 1.070825 0.736251
v -0.228444 1.051471 0.801955
v -0.198729 1.047719 0.816840
v -0.230747 0.408614 0.789518
v -0.230725 0.413880 0.800020
v -0.221614 0.417321 0.797878
v -0.221614 0.412650 0.788790
v -0.222676 0.405892 0.771573
v -0.230102 0.396161 0.772494
v -0.215496 0.413491 0.800261
v -0.215518 0.408164 0.789598
v -0.221614 0.432570 0.802874
v -0.215435 0.428857 0.805183
v -0.230664 0.429246 0.804942
v -0.098362 0.483004 0.762848
v -0.105023 0.505305 0.752703
v -0.108225 0.518757 0.761021
v -0.101692 0.496524 0.771121
v -0.096372 0.478505 0.742162
v -0.103928 0.502769 0.741284
v -0.111271 0.502793 0.722826
v -0.113693 0.504964 0.741067
v -0.102012 0.494796 0.721840
v -0.104736 0.473582 0.765110
v -0.108112 0.487058 0.773391
v -0.102500 0.468722 0.741297
v -0.104045 0.480473 0.718236
v -0.114612 0.480130 0.760939
v -0.117943 0.493651 0.769212
v -0.112711 0.476002 0.740487
v -0.115920 0.493319 0.720898
v -0.308003 0.493649 0.769212
v -0.311333 0.480130 0.760939
v -0.306095 0.501850 0.752116
v -0.302893 0.515302 0.760435
v -0.317836 0.487056 0.773391
v -0.321212 0.473582 0.765110
v -0.323445 0.468722 0.741297
v -0.313237 0.476002 0.740487
v -0.321900 0.480471 0.718236
v -0.310486 0.493319 0.720898
v -0.307203 0.499293 0.740526
v -0.314677 0.502793 0.722826
v -0.312254 0.504964 0.741067
v -0.197962 0.509578 0.936561
v -0.199040 0.602293 0.946504
v -0.196115 0.602974 0.982950
v -0.199628 0.500275 0.970521
v -0.204773 0.470849 0.944736
v -0.205450 0.490545 0.922451
v -0.209969 0.449278 0.902640
v -0.209448 0.471273 0.889520
v -0.211299 0.413921 0.833935
v -0.207868 0.441659 0.817269
v -0.216556 0.409233 0.818805
v -0.228116 0.404594 0.841088
v -0.225070 0.401912 0.824419
v -0.194870 0.673508 0.940812
v -0.191903 0.664133 0.982027
v -0.225574 0.442574 0.907823
v -0.223940 0.465550 0.952485
v -0.222969 0.498757 0.981201
v -0.217115 0.604179 0.997086
v -0.242161 0.413725 0.835471
v -0.233126 0.409083 0.819987
v -0.238781 0.449117 0.903908
v -0.238887 0.471127 0.946226
v -0.240486 0.501362 0.971975
v -0.236969 0.604201 0.986143
v -0.216958 0.698906 1.001171
v -0.253300 0.703334 0.988688
v -0.217018 0.662932 0.999620
v -0.105679 0.486298 0.790359
v -0.124049 0.493508 0.784740
v -0.115935 0.506233 0.863839
v -0.132581 0.510727 0.859593
v -0.122231 0.517267 0.912459
v -0.142079 0.520321 0.905227
v -0.129974 0.541913 0.947966
v -0.153133 0.541231 0.936812
v -0.157265 0.618355 0.975105
v -0.177573 0.614792 0.966541
v -0.179331 0.703334 0.992198
v -0.183356 0.742184 0.956398
v -0.213367 0.749078 0.991629
v -0.163815 0.708296 0.985631
v -0.144201 0.622576 0.969354
v -0.113361 0.550045 0.940441
v -0.108742 0.527014 0.908379
v -0.104345 0.516002 0.862176
v -0.093797 0.499096 0.787673
v -0.101794 0.530067 0.776116
v -0.178368 0.729712 0.931695
v -0.156263 0.714344 0.958205
v -0.143663 0.627755 0.940010
v -0.119943 0.565520 0.907054
v -0.114827 0.551129 0.889292
v -0.111755 0.540358 0.852996
v -0.249443 0.730490 0.945463
v -0.241055 0.744807 0.971727
v -0.324253 0.496524 0.771121
v -0.332148 0.499096 0.787673
v -0.324151 0.530067 0.776116
v -0.317721 0.518754 0.761021
v -0.321601 0.516002 0.862176
v -0.314190 0.540358 0.852996
v -0.317206 0.527014 0.908377
v -0.311118 0.551129 0.889292
v -0.312587 0.550045 0.940441
v -0.306002 0.565520 0.907054
v -0.281746 0.622576 0.969354
v -0.282283 0.627757 0.940010
v -0.268815 0.708296 0.982122
v -0.269685 0.714344 0.958205
v -0.234017 0.718754 0.920154
v -0.253904 0.712313 0.951244
v -0.268944 0.626058 0.934030
v -0.286967 0.564605 0.900564
v -0.308181 0.520603 0.759340
v -0.303610 0.530849 0.773522
v -0.292867 0.523137 0.774764
v -0.298815 0.541440 0.850895
v -0.294227 0.551979 0.885412
v -0.251377 0.621372 0.939068
v -0.269283 0.557736 0.905868
v -0.240701 0.669517 0.941447
v -0.217049 0.696397 0.938062
v -0.217016 0.670822 0.938723
v -0.236060 0.704607 0.944862
v -0.216926 0.602000 0.940504
v -0.230608 0.602265 0.945918
v -0.288357 0.534635 0.851879
v -0.280506 0.544434 0.888129
v -0.133078 0.523137 0.774764
v -0.137588 0.534636 0.851879
v -0.127130 0.541440 0.850895
v -0.122335 0.530849 0.773522
v -0.145442 0.544434 0.888129
v -0.131718 0.551979 0.885412
v -0.156665 0.557736 0.905868
v -0.138979 0.564605 0.900564
v -0.174571 0.621370 0.939068
v -0.157002 0.626058 0.934030
v -0.172044 0.706119 0.945440
v -0.197884 0.700537 0.941204
v -0.200602 0.719206 0.921051
v -0.217614 0.714909 0.912539
v -0.117767 0.520606 0.759340
v -0.123052 0.515302 0.760435
v -0.311299 0.507273 0.750973
v -0.320923 0.505305 0.752703
v -0.322020 0.502769 0.741284
v -0.323934 0.494794 0.721840
v -0.114647 0.507273 0.750973
v -0.118742 0.499293 0.740526
v -0.119852 0.501853 0.752116
v -0.327584 0.483004 0.762848
v -0.329574 0.478503 0.742162
v -0.233302 0.393634 0.815125
v -0.225301 0.386495 0.819539
v -0.233360 0.384186 0.796077
v -0.225376 0.375933 0.797536
v -0.225090 0.382120 0.772360
v -0.216732 0.393784 0.813945
v -0.216789 0.384760 0.795036
v -0.217100 0.396645 0.771925
v -0.239867 0.661290 0.984200
v -0.248374 0.614792 0.966541
v -0.272815 0.541231 0.936812
v -0.283867 0.520321 0.905227
v -0.293365 0.510727 0.859593
v -0.301896 0.493508 0.784740
v -0.268683 0.618355 0.975105
v -0.295974 0.541913 0.947966
v -0.303714 0.517267 0.912459
v -0.310012 0.506232 0.863841
v -0.320267 0.486295 0.790359
v -0.239935 0.442166 0.816954
v -0.235926 0.471690 0.889259
v -0.236806 0.490920 0.922005
v -0.235511 0.509747 0.935883
v -0.216385 0.511277 0.929793
v -0.220254 0.494290 0.918034
v -0.220990 0.475381 0.886963
v -0.219858 0.446515 0.814249
v -0.171587 1.056359 0.793643
v -0.180856 1.127124 0.848199
v -0.220554 0.410969 0.749681
v -0.114386 0.512352 0.702616
v -0.311561 0.512350 0.702616
vn -0.7253 0.3845 -0.5710
vn -0.6799 0.2119 -0.7021
vn -0.8504 0.3272 -0.4120
vn -0.7844 0.4948 -0.3741
vn -0.7854 0.2738 0.5551
vn -0.8937 0.1720 0.4144
vn -0.6590 -0.0925 0.7465
vn -0.6291 -0.0857 0.7726
vn -0.8462 0.4708 0.2495
vn -0.9346 0.3555 -0.0108
vn -0.8355 0.5474 -0.0470
vn -0.5374 0.0305 -0.8428
vn -0.3597 0.2265 -0.9051
vn -0.9338 0.0801 0.3487
vn -0.6398 -0.1411 0.7555
vn -0.9594 0.2546 -0.1216
vn -0.8070 0.3070 -0.5045
vn 0.7687 0.0273 -0.6390
vn 0.6794 0.1095 -0.7255
vn 0.0063 0.1487 -0.9889
vn -0.1200 0.2155 -0.9691
vn -0.7553 0.2495 -0.6060
vn 0.0104 -0.1291 -0.9916
vn -0.7368 -0.0839 -0.6709
vn -0.7221 0.1116 -0.6828
vn 0.6927 -0.0916 -0.7154
vn -0.0628 -0.8264 -0.5595
vn 0.7861 -0.5069 0.3538
vn 0.9860 -0.0443 -0.1609
vn 0.9962 0.0026 -0.0872
vn 0.9838 0.0038 -0.1793
vn 0.9915 -0.0723 -0.1080
vn 0.7053 -0.3970 -0.5873
vn 0.0110 -0.5463 -0.8375
vn -0.7506 -0.3731 -0.5453
vn -0.9915 -0.0084 -0.1300
vn -0.9839 0.0314 -0.1761
vn 0.6968 -0.5708 -0.4344
vn 0.9931 -0.1097 -0.0410
vn 0.0110 -0.7906 -0.6122
vn -0.8260 -0.4566 -0.3306
vn -0.9783 -0.1384 -0.1542
vn -0.9819 -0.0145 0.1886
vn 0.6590 -0.5376 -0.5260
vn 0.9748 -0.0156 -0.2223
vn 0.0118 -0.7863 -0.6177
vn -0.7628 -0.4727 -0.4413
vn -0.9958 0.0636 -0.0655
vn -0.9977 -0.0006 0.0672
vn -0.9931 0.0434 0.1094
vn -0.7316 0.3967 0.5544
vn -0.7034 -0.0347 0.7099
vn 0.1474 0.5825 0.7994
vn 0.1196 -0.0674 0.9905
vn 0.8922 0.2508 0.3755
vn 0.9089 -0.0530 0.4137
vn 0.1827 0.7309 0.6576
vn 0.8578 0.3672 0.3595
vn 0.8468 0.4496 0.2843
vn -0.7451 0.4851 0.4578
vn -0.7549 0.5228 0.3961
vn 0.1500 0.7449 0.6501
vn -0.9538 -0.0266 0.2992
vn -0.9771 0.1469 -0.1542
vn -0.6435 -0.2431 0.7259
vn 0.2007 -0.4215 0.8843
vn -0.8415 0.4723 -0.2624
vn -0.8146 0.3753 -0.4423
vn 0.1068 0.6374 -0.7631
vn 0.0929 0.8758 -0.4736
vn 0.0642 0.9787 -0.1951
vn -0.9501 0.1414 -0.2779
vn 0.9037 0.2705 -0.3320
vn 0.9197 0.3320 -0.2096
vn 0.0924 0.4500 -0.8882
vn 0.8387 0.1403 -0.5261
vn -0.7276 0.2071 -0.6540
vn 0.9662 -0.0674 0.2487
vn 0.7206 0.6229 -0.3044
vn 0.6699 0.4955 -0.5530
vn 0.9839 -0.1784 0.0094
vn 0.9981 -0.0502 -0.0344
vn 0.7271 0.6783 -0.1059
vn -0.2218 0.9736 0.0540
vn -0.2587 0.9321 -0.2534
vn 0.9011 0.3888 -0.1918
vn 0.1104 -0.7920 0.6005
vn 0.1416 -0.9039 0.4036
vn 0.2231 -0.9598 -0.1701
vn 0.1992 -0.6013 -0.7738
vn -0.8508 -0.4927 0.1828
vn -0.8136 -0.5796 0.0464
vn -0.8437 -0.5274 -0.1004
vn -0.9660 -0.1200 -0.2288
vn 0.8136 -0.5796 0.0464
vn 0.8508 -0.4927 0.1828
vn 0.9399 0.1557 -0.3038
vn 0.8497 0.0904 -0.5194
vn -0.1418 -0.9039 0.4036
vn -0.1105 -0.7920 0.6005
vn -0.2210 -0.9601 -0.1712
vn 0.8444 -0.5249 -0.1066
vn -0.1903 -0.6033 -0.7745
vn 0.9644 -0.1276 -0.2315
vn 0.9678 0.1928 -0.1617
vn 0.2359 0.9706 0.0469
vn 0.2625 0.9302 -0.2566
vn 0.8162 0.1166 -0.5659
vn 0.7819 -0.0084 -0.6233
vn 0.8847 -0.0721 0.4606
vn 0.8551 -0.2886 0.4308
vn 0.8237 -0.5017 0.2643
vn 0.8339 0.3105 -0.4563
vn 0.8463 -0.4900 0.2089
vn 0.8447 0.4614 -0.2713
vn 0.8488 -0.5221 0.0831
vn 0.8574 0.3156 -0.4065
vn 0.9094 -0.3744 0.1814
vn -0.0079 -0.9584 0.2855
vn 0.0216 -0.7960 0.6048
vn 0.1080 -0.0785 -0.9910
vn 0.3540 -0.3816 0.8538
vn -0.0261 -0.8859 0.4631
vn -0.0363 -0.7938 0.6071
vn -0.0195 -0.4254 0.9048
vn 0.0141 -0.0853 0.9963
vn -0.8769 -0.4804 -0.0158
vn -0.9281 -0.3687 0.0511
vn -0.8922 -0.3892 0.2290
vn -0.8854 -0.3682 0.2837
vn -0.8987 -0.1719 0.4034
vn -0.8913 -0.0504 0.4505
vn -0.0468 0.0744 0.9961
vn -0.3526 0.0713 0.9331
vn -0.0065 -0.1452 0.9894
vn 0.2037 -0.9774 0.0572
vn -0.7241 -0.6850 -0.0803
vn 0.2068 -0.9466 0.2472
vn -0.7282 -0.6835 0.0495
vn 0.1979 -0.8908 0.4091
vn -0.7037 -0.7032 0.1018
vn 0.1266 -0.5903 0.7972
vn -0.7538 -0.5710 0.3252
vn 0.0962 -0.2534 0.9626
vn -0.7623 -0.4012 0.5079
vn 0.3289 0.0990 0.9392
vn 0.6825 0.6595 0.3150
vn 0.0474 0.5482 0.8350
vn 0.6418 0.4253 0.6381
vn 0.8111 0.0829 0.5790
vn 0.8981 -0.0388 0.4381
vn 0.9420 -0.2410 0.2335
vn 0.9530 -0.2469 0.1759
vn 0.9566 -0.2791 -0.0838
vn 0.6536 0.6759 -0.3405
vn 0.8186 0.0747 -0.5695
vn 0.8733 0.3743 -0.3117
vn 0.8073 0.3863 -0.4462
vn 0.6964 0.5858 -0.4147
vn 0.6661 0.6976 -0.2637
vn 0.6364 0.7655 -0.0952
vn -0.8901 0.1983 -0.4103
vn -0.6483 0.5930 0.4775
vn -0.9839 -0.1783 0.0094
vn -0.9566 -0.2790 -0.0838
vn -0.6537 0.6758 -0.3405
vn -0.6699 0.4954 -0.5530
vn -0.9530 -0.2468 0.1758
vn -0.6363 0.7655 -0.0952
vn -0.9420 -0.2410 0.2335
vn -0.6661 0.6977 -0.2638
vn -0.8981 -0.0388 0.4381
vn -0.6963 0.5858 -0.4147
vn -0.8280 0.0820 0.5547
vn -0.7791 0.3861 -0.4939
vn -0.7333 0.3622 0.5754
vn -0.7936 0.2777 -0.5414
vn -0.6894 -0.4712 -0.5501
vn -0.4434 -0.0713 -0.8935
vn -0.0569 0.3321 -0.9415
vn 0.0994 0.6014 -0.7927
vn 0.1826 0.6186 -0.7642
vn 0.2477 0.8745 -0.4170
vn 0.9038 0.2254 -0.3637
vn 0.2424 0.9421 -0.2317
vn 0.1845 0.8414 -0.5080
vn 0.7581 0.0169 -0.6520
vn 0.8249 0.0956 -0.5572
vn -0.1608 -0.0056 -0.9870
vn -0.0522 -0.4120 -0.9097
vn -0.0227 -0.0144 -0.9996
vn -0.4125 -0.3721 -0.8315
vn -0.0021 0.0272 -0.9996
vn -0.7642 0.0018 -0.6450
vn 0.9212 0.3349 -0.1981
vn 0.8798 0.2369 -0.4121
vn -0.9038 0.2254 -0.3637
vn -0.9212 0.3349 -0.1981
vn -0.2424 0.9421 -0.2317
vn -0.2477 0.8745 -0.4170
vn -0.8798 0.2369 -0.4122
vn -0.1845 0.8414 -0.5080
vn -0.8249 0.0956 -0.5572
vn -0.0994 0.6015 -0.7927
vn -0.7591 -0.0437 -0.6495
vn 0.0780 0.3183 -0.9448
vn 0.3687 -0.1638 -0.9150
vn 0.2467 -0.3747 -0.8937
vn 0.4808 -0.5360 -0.6940
vn -0.0197 -0.7584 -0.6514
vn -0.1826 0.6186 -0.7642
vn -0.8498 0.0904 -0.5193
vn 0.2350 0.7647 -0.6001
vn -0.7206 0.6230 -0.3044
vn -0.7271 0.6783 -0.1059
vn -0.9012 0.3887 -0.1919
vn -0.2350 0.7646 -0.6001
vn -0.9681 0.1980 -0.1537
vn -0.9399 0.1558 -0.3038
vn -0.9662 -0.0674 0.2487
vn -0.9981 -0.0502 -0.0344
vn -0.9444 -0.2044 0.2575
vn 0.0204 -0.6379 0.7699
vn -0.9654 -0.2598 -0.0216
vn 0.2193 -0.9748 -0.0398
vn 0.0122 -0.7992 -0.6010
vn 0.9219 -0.2527 0.2935
vn 0.9180 -0.3957 -0.0271
vn 0.9681 -0.1197 -0.2199
vn -0.3643 -0.2870 0.8859
vn 0.7646 -0.3632 0.5323
vn 0.7538 -0.5710 0.3252
vn 0.7037 -0.7032 0.1018
vn 0.7282 -0.6835 0.0495
vn 0.7241 -0.6850 -0.0803
vn -0.1291 -0.2402 0.9621
vn -0.1266 -0.5903 0.7972
vn -0.1979 -0.8908 0.4091
vn -0.2069 -0.9466 0.2472
vn -0.2037 -0.9774 0.0573
vn -0.7578 0.4309 -0.4899
vn -0.7705 0.5762 -0.2725
vn -0.7780 0.4668 -0.4204
vn -0.7805 0.2459 -0.5748
vn 0.0156 0.3482 -0.9373
vn 0.0378 0.7213 -0.6916
vn 0.0611 0.8926 -0.4468
vn 0.0886 0.7867 -0.6110
vn 0.9226 -0.2333 0.3071
vn 0.5305 -0.3124 0.7880
vn 0.1884 -0.6567 0.7303
vn -0.2926 -0.3750 0.8796
vn 0.0424 0.5033 -0.8631
vn -0.0505 0.7422 -0.6683
vn 0.0962 0.7273 -0.6796
usemtl Velociraptor_Mat
s 1
f 3//1 5//2 13//3 4//4
f 8//5 14//6 15//7 6//8
f 9//9 16//10 14//6 8//5
f 10//11 16//10 9//9
f 4//4 13//3 16//10 10//11
f 5//2 1//12 17//13
f 14//6 18//14 19//15 15//7
f 16//10 20//16 18//14 14//6
f 13//3 21//17 20//16 16//10
f 5//2 17//13 21//17 13//3
f 22//18 23//19 24//20 25//21
f 17//13 25//21 26//22 21//17
f 27//23 28//24 29//25 24//20
f 24//20 23//19 30//26 27//23
f 22//18 2//27 11//28 31//29
f 2//27 22//18 1//12
f 32//30 30//26 23//19 33//31
f 34//32 35//33 30//26 32//30
f 35//33 36//34 27//23 30//26
f 36//34 37//35 28//24 27//23
f 28//24 38//36 39//37 29//25
f 40//38 35//33 34//32 41//39
f 42//40 36//34 35//33 40//38
f 43//41 37//35 36//34 42//40
f 37//35 44//42 38//36 28//24
f 38//36 45//43 39//37
f 46//44 40//38 41//39 47//45
f 48//46 42//40 40//38 46//44
f 49//47 43//41 42//40 48//46
f 50//48 51//49 43//41 49//47
f 51//49 52//50 44//42 43//41
f 44//42 52//50 38//36
f 53//51 54//52 45//43 52//50
f 55//53 56//54 54//52 53//51
f 57//55 58//56 56//54 55//53
f 55//53 59//57 60//58 57//55
f 41//39 34//32 57//55 60//58
f 60//58 61//59 47//45 41//39
f 62//60 53//51 52//50 51//49
f 59//57 55//53 53//51 62//60
f 63//61 62//60 51//49 50//48
f 64//62 59//57 62//60 63//61
f 32//30 58//56 57//55
f 45//43 65//63 66//64 39//37
f 54//52 67//65 65//63 45//43
f 56//54 68//66 67//65 54//52
f 39//37 66//64 26//22 29//25
f 69//67 70//68 71//69 72//70
f 72//70 73//71 74//72 69//67
f 72//70 71//69 75//73 76//74
f 71//69 77//75 78//76 75//73
f 70//68 79//77 77//75 71//69
f 80//78 81//79 82//80 83//81
f 84//82 85//83 81//79 80//78
f 86//84 87//85 85//83 88//86
f 89//87 80//78 83//81 90//88
f 91//89 84//82 80//78 89//87
f 92//90 88//86 84//82 91//89
f 93//91 89//87 90//88 94//92
f 95//93 91//89 89//87 93//91
f 96//94 92//90 91//89 95//93
f 97//95 98//96 99//97 100//98
f 101//99 102//100 98//96 97//95
f 102//100 103//101 104//102 98//96
f 103//101 105//103 106//104 104//102
f 98//96 104//102 107//105 99//97
f 107//105 104//102 106//104
f 108//106 109//107 107//105 106//104
f 110//108 111//109 112//110 113//111
f 113//111 114//112 115//113 110//108
f 114//112 116//114 117//115 115//113
f 116//114 118//116 119//117 117//115
f 118//116 120//118 78//76 119//117
f 121//119 122//120 120//118 118//116
f 123//121 124//122 112//110 111//109
f 116//114 125//123 121//119 118//116
f 116//114 114//112 126//124 125//123
f 114//112 113//111 127//125 126//124
f 113//111 112//110 128//126 127//125
f 122//120 121//119 129//127 130//128
f 125//123 131//129 129//127 121//119
f 125//123 126//124 132//130 131//129
f 126//124 127//125 133//131 132//130
f 127//125 128//126 134//132 133//131
f 135//133 136//134 137//135
f 138//136 139//137 94//92 90//88
f 138//136 140//138 141//139 139//137
f 142//140 143//141 141//139 140//138
f 144//142 145//143 143//141 142//140
f 146//144 147//145 145//143 144//142
f 148//146 124//122 147//145 146//144
f 135//133 137//135 148//146
f 149//147 61//59 64//62 150//148
f 148//146 149//147 150//148
f 148//146 151//149 149//147
f 146//144 152//150 151//149 148//146
f 144//142 153//151 152//150 146//144
f 142//140 154//152 153//151 144//142
f 140//138 155//153 154//152 142//140
f 138//136 156//154 155//153 140//138
f 90//88 83//81 156//154 138//136
f 83//81 82//80 157//155 156//154
f 61//59 149//147 158//156 47//45
f 159//157 158//156 149//147
f 151//149 159//157 149//147
f 152//150 160//158 159//157 151//149
f 153//151 161//159 160//158 152//150
f 154//152 162//160 161//159 153//151
f 155//153 163//161 162//160 154//152
f 156//154 157//155 163//161 155//153
f 50//48 164//162 165//163 63//61
f 166//164 167//165 168//166 169//167
f 167//165 170//168 171//169 168//166
f 170//168 172//170 173//171 171//169
f 172//170 174//172 175//173 173//171
f 174//172 176//174 177//175 175//173
f 176//174 178//176 179//177 177//175
f 165//163 164//162 179//177 178//176
f 49//47 180//178 164//162 50//48
f 181//179 179//177 164//162
f 181//179 182//180 177//175 179//177
f 182//180 183//181 175//173 177//175
f 184//182 185//183 186//184 100//98
f 169//167 168//166 185//183 184//182
f 171//169 187//185 185//183 168//166
f 171//169 173//171 188//186 187//185
f 173//171 175//173 183//181 188//186
f 189//187 190//188 183//181 182//180
f 181//179 191//189 189//187 182//180
f 192//190 193//191 191//189 194//192
f 195//193 196//194 191//189 193//191
f 187//185 197//195 186//184 185//183
f 187//185 188//186 198//196 197//195
f 188//186 183//181 190//188 198//196
f 199//197 200//198 201//199 202//200
f 203//201 204//202 201//199 200//198
f 205//203 206//204 204//202 203//201
f 207//205 208//206 206//204 205//203
f 207//205 123//121 209//207 208//206
f 209//207 123//121 210//208
f 211//209 209//207 210//208
f 192//190 194//192 180//178 212//210
f 48//46 212//210 180//178 49//47
f 46//44 211//209 212//210 48//46
f 47//45 158//156 211//209 46//44
f 159//157 209//207 158//156
f 160//158 208//206 209//207 159//157
f 161//159 206//204 208//206 160//158
f 162//160 204//202 206//204 161//159
f 163//161 201//199 204//202 162//160
f 157//155 202//200 201//199 163//161
f 82//80 213//211 202//200 157//155
f 213//211 214//212 199//197 202//200
f 214//212 94//92 139//137 199//197
f 141//139 200//198 199//197 139//137
f 143//141 203//201 200//198 141//139
f 145//143 205//203 203//201 143//141
f 147//145 207//205 205//203 145//143
f 124//122 123//121 207//205 147//145
f 100//98 99//97 215//213 184//182
f 99//97 107//105 109//107 215//213
f 184//182 215//213 216//214 169//167
f 215//213 109//107 217//215 216//214
f 109//107 108//106 218//216 217//215
f 219//217 81//79 85//83 87//85
f 220//218 87//85 86//84 96//94
f 221//219 219//217 87//85 220//218
f 214//212 213//211 219//217 221//219
f 213//211 82//80 81//79 219//217
f 221//219 93//91 94//92 214//212
f 220//218 95//93 93//91 221//219
f 96//94 95//93 220//218
f 166//164 222//220 102//100 101//99
f 222//220 223//221 103//101 102//100
f 223//221 218//216 105//103 103//101
f 130//128 224//222 225//223 122//120
f 224//222 226//224 227//225 225//223
f 226//224 74//72 228//226 227//225
f 229//227 230//228 76//74 75//73
f 76//74 230//228 231//229
f 76//74 231//229 73//71 72//70
f 231//229 227//225 228//226
f 231//229 230//228 227//225
f 230//228 229//227 225//223 227//225
f 229//227 120//118 122//120 225//223
f 75//73 78//76 120//118 229//227
f 232//230 233//231 189//187 191//189
f 233//231 234//232 190//188 189//187
f 234//232 235//233 198//196 190//188
f 235//233 236//234 197//195 198//196
f 236//234 237//235 186//184 197//195
f 237//235 97//95 100//98 186//184
f 135//133 148//146 150//148
f 150//148 136//134 135//133
f 238//236 233//231 232//230 136//134
f 238//236 239//237 234//232 233//231
f 239//237 240//238 235//233 234//232
f 240//238 241//239 236//234 235//233
f 241//239 242//240 237//235 236//234
f 242//240 101//99 97//95 237//235
f 101//99 242//240 167//165 166//164
f 241//239 170//168 167//165 242//240
f 241//239 240//238 172//170 170//168
f 240//238 239//237 174//172 172//170
f 239//237 238//236 176//174 174//172
f 238//236 136//134 178//176 176//174
f 136//134 165//163 178//176
f 165//163 136//134 150//148
f 150//148 64//62 63//61 165//163
f 130//128 129//127 243//241 79//77
f 131//129 244//242 243//241 129//127
f 131//129 132//130 245//243 244//242
f 132//130 133//131 246//244 245//243
f 134//132 232//230 191//189 196//194
f 79//77 70//68 224//222 130//128
f 70//68 69//67 226//224 224//222
f 74//72 226//224 69//67
f 195//193 247//245 246//244 196//194
f 247//245 248//246 245//243 246//244
f 248//246 249//247 244//242 245//243
f 249//247 250//248 243//241 244//242
f 250//248 77//75 79//77 243//241
f 123//121 111//109 195//193 193//191
f 111//109 110//108 247//245 195//193
f 110//108 115//113 248//246 247//245
f 115//113 117//115 249//247 248//246
f 119//117 250//248 249//247 117//115
f 119//117 78//76 77//75 250//248
f 169//167 216//214 222//220 166//164
f 216//214 217//215 223//221 222//220
f 59//57 64//62 61//59 60//58
f 38//36 52//50 45//43
f 33//31 58//56 32//30
f 251//249 11//28 252//250 68//66
f 252//250 11//28 12//251
f 12//251 7//252 252//250
f 32//30 57//55 34//32
f 88//86 85//83 84//82
f 223//221 217//215 218//216
f 44//42 37//35 43//41
f 25//21 17//13 1//12 22//18
f 25//21 24//20 29//25 26//22
f 31//29 33//31 23//19 22//18
f 251//249 58//56 33//31 31//29
f 18//14 20//16 66//64 65//63
f 252//250 19//15 67//65 68//66
f 20//16 21//17 26//22 66//64
f 68//66 56//54 58//56 251//249
f 65//63 67//65 19//15 18//14
f 15//7 7//252 6//8
f 19//15 252//250 7//252 15//7
f 251//249 31//29 11//28
f 128//126 112//110 124//122 137//135
f 128//126 137//135 232//230 134//132
f 137//135 124//122 148//146
f 136//134 232//230 137//135
f 192//190 212//210 211//209 210//208
f 123//121 193//191 192//190 210//208
f 181//179 180//178 194//192
f 191//189 181//179 194//192
f 211//209 158//156 209//207
f 181//179 164//162 180//178
f 133//131 134//132 196//194 246//244
f 253//253 74//72 73//71
f 254//254 86//84 88//86
f 106//104 255//255 108//106
f 255//255 218//216 108//106
f 86//84 254//254 96//94
f 73//71 231//229 253//253
f 92//90 254//254 88//86
f 96//94 254//254 92//90
f 218//216 255//255 105//103
f 105//103 255//255 106//104
f 74//72 253//253 228//226
f 231//229 228//226 253//253
